<svg class="img-fluid" id="outputsvg" xmlns="http://www.w3.org/2000/svg" style="transform: none; transform-origin: 50% 50%; max-height: 331.6px;" width="1464" height="423" viewBox="0 0 14640 4230">
    <g id="l5tgX5rRtxzMTdXyb9efGa0" fill="rgb(255,255,255)" style="transform: none;">
        <g>
            <path id="p2xYkDrBy" d="M5691 3425 c-131 -29 -211 -103 -225 -206 -10 -67 24 -218 89 -406 93 -267 152 -367 258 -437 60 -40 174 -93 267 -126 36 -12 92 -33 125 -45 33 -13 105 -40 160 -61 174 -65 238 -98 266 -135 56 -75 119 -265 119 -360 0 -61 -2 -67 -22 -73 -73 -19 -125 9 -164 91 -15 32 -53 135 -84 228 l-58 170 -307 3 -306 2 6 -22 c32 -105 106 -291 148 -373 97 -186 289 -346 500 -415 133 -43 183 -51 347 -57 141 -4 179 -2 263 15 188 39 284 112 324 245 34 114 -9 286 -243 981 -80 237 -185 548 -233 691 l-88 260 -304 3 c-167 1 -309 0 -316 -2 -9 -4 -6 -24 13 -78 13 -40 23 -76 22 -80 -2 -5 -30 14 -63 42 -33 29 -80 63 -104 77 -116 69 -268 96 -390 68z m579 -384 c39 -28 72 -105 169 -399 50 -150 91 -275 91 -277 0 -7 -100 54 -145 88 -22 16 -57 49 -78 71 -76 81 -177 338 -180 455 -2 60 0 66 23 78 30 15 85 8 120 -16z"/>
            <path id="pXtTNSgUN" d="M11645 3426 c-84 -14 -182 -44 -244 -76 -54 -28 -116 -97 -148 -165 -26 -55 -28 -69 -27 -175 0 -138 12 -184 169 -645 189 -552 216 -619 310 -760 84 -127 190 -221 327 -289 156 -78 271 -107 458 -113 122 -4 160 -2 237 15 169 38 265 102 324 218 31 62 34 77 37 168 5 131 -25 267 -119 546 -38 113 -69 206 -69 207 0 2 -192 4 -427 5 l-427 3 -98 290 c-124 368 -127 405 -28 405 64 0 112 -35 149 -109 17 -32 60 -147 97 -255 l66 -196 303 0 c166 0 304 2 307 5 10 10 -93 290 -147 402 -48 99 -67 125 -152 213 -203 212 -409 305 -701 314 -66 3 -152 -1 -197 -8z m744 -1473 c81 -224 109 -355 80 -374 -23 -14 -103 -10 -127 7 -12 8 -32 34 -44 57 -31 62 -129 347 -122 358 3 5 47 9 98 9 l94 0 21 -57z"/>
            <path id="pHRZQ9sox" d="M3730 3396 c0 -3 20 -62 44 -133 106 -304 770 -2255 796 -2338 7 -22 23 -64 36 -93 l24 -54 467 5 c488 5 526 8 654 53 172 62 221 187 165 419 -29 121 -159 513 -214 642 -69 166 -161 275 -291 342 -131 68 -238 90 -485 100 l-160 6 -32 95 c-18 52 -76 221 -128 375 -52 154 -118 348 -146 432 l-52 152 -339 0 c-186 1 -339 -1 -339 -3z m1318 -1502 c45 -7 106 -64 136 -128 48 -102 146 -409 146 -459 0 -43 -3 -49 -32 -67 -23 -14 -51 -20 -91 -20 -50 0 -59 3 -67 23 -22 53 -220 640 -220 652 0 12 42 12 128 -1z"/>
            <path id="pfZiVIUwP" d="M7060 3396 c0 -2 88 -262 196 -577 237 -695 534 -1570 534 -1575 0 -2 147 -4 326 -4 l325 0 -7 23 c-3 12 -13 36 -22 52 -8 17 -30 68 -48 114 l-33 84 92 -90 c136 -132 196 -169 345 -211 53 -15 72 -17 72 -8 0 11 -238 727 -243 733 -2 1 -36 5 -77 8 -141 12 -215 38 -288 100 -87 75 -95 97 -451 1150 l-68 200 -327 3 c-179 1 -326 0 -326 -2z"/>
            <path id="pbUmgvKTY" d="M8741 3389 c-149 -13 -203 -37 -255 -114 -35 -51 -35 -140 -2 -257 26 -87 174 -531 359 -1070 58 -170 105 -309 104 -309 -1 -1 -31 -3 -65 -5 -35 -1 -66 -5 -68 -7 -2 -2 21 -77 52 -166 l56 -161 72 0 71 0 59 -174 58 -175 112 -4 c131 -4 528 1 534 8 2 2 -21 79 -52 170 -31 92 -56 168 -56 171 0 2 39 4 86 4 65 0 85 3 82 13 -3 6 -27 77 -53 157 -26 80 -50 148 -54 152 -3 4 -45 8 -93 9 l-87 1 -74 222 c-41 121 -131 388 -200 591 -128 376 -177 533 -177 565 0 18 51 30 131 30 23 0 39 5 39 12 0 6 -25 87 -56 180 l-56 168 -187 -1 c-102 -1 -228 -6 -280 -10z"/>
            <path id="pZkE1OIJT" d="M9330 3392 c0 -5 45 -141 101 -303 88 -256 571 -1675 612 -1799 l15 -45 331 -3 c182 -1 331 0 331 2 0 3 -13 40 -30 82 -16 43 -28 79 -26 81 2 2 34 -22 72 -53 76 -63 200 -126 282 -143 75 -16 199 -14 259 4 67 20 128 66 155 117 18 35 23 58 22 123 -1 129 -6 144 -392 1280 -94 275 -183 536 -199 580 l-28 80 -322 3 c-259 2 -323 0 -323 -10 0 -7 14 -54 31 -103 87 -252 417 -1220 486 -1425 41 -122 56 -181 57 -225 l1 -59 -42 -4 c-43 -4 -98 18 -120 47 -15 20 -84 191 -130 326 -84 243 -310 907 -369 1085 -36 107 -79 234 -96 282 l-31 88 -323 0 c-178 0 -324 -4 -324 -8z"/>
            <path id="p1CMdsOgj2" d="M12775 3382 c3 -9 55 -161 115 -337 59 -176 183 -540 275 -810 91 -269 199 -587 239 -705 41 -118 79 -232 86 -253 l12 -37 324 0 c178 0 324 2 324 5 0 3 -22 58 -50 122 -27 64 -50 120 -50 125 0 5 35 -26 78 -68 125 -125 239 -190 390 -223 39 -8 43 -7 37 7 -8 19 -245 724 -245 728 0 1 -37 5 -82 9 -154 14 -260 61 -327 145 -60 75 -95 171 -406 1090 l-72 215 -328 2 c-307 3 -327 2 -320 -15z"/>
            <path id="pO3uK3Ax3" d="M2705 2165 c-33 -8 -72 -17 -87 -20 -45 -12 -104 -74 -118 -125 -24 -88 -4 -248 52 -402 l20 -58 212 0 212 0 2 83 c1 57 -4 98 -17 137 -29 88 -33 110 -18 110 7 0 18 -5 25 -12 9 -9 12 -6 12 16 0 25 2 27 16 15 48 -40 134 -256 134 -337 0 -57 -13 -67 -93 -77 -49 -6 -57 -5 -57 9 0 10 -9 16 -24 16 -67 0 -71 -29 -25 -172 33 -102 48 -121 50 -65 1 17 3 24 6 15 2 -10 12 -18 21 -18 59 -1 162 -14 188 -25 55 -23 110 -122 129 -233 9 -53 -5 -72 -52 -72 -49 0 -86 43 -116 133 l-24 72 -76 3 c-59 2 -77 6 -77 17 0 12 -24 15 -140 15 l-140 0 0 -33 c0 -40 37 -151 73 -223 32 -64 68 -106 130 -155 52 -42 77 -49 77 -23 0 12 6 15 23 10 153 -46 360 -59 512 -32 97 17 111 22 153 53 52 39 65 75 59 163 -11 150 -70 264 -179 345 l-67 50 30 31 c39 40 50 90 38 165 -14 85 -75 254 -119 329 -46 78 -137 168 -207 203 -50 26 -189 67 -225 67 -11 0 -18 7 -18 20 0 19 -6 20 -117 19 -65 -1 -145 -7 -178 -14z"/>
        </g>
    </g>
    
    <g id="l1IVOr891TGJBicDwIg2d56" fill="rgb(255,47,114)" style="transform: none;">
        <g>
            <polygon points="350,350 2850,500 1800,4050 350,4050" fill="rgb(255,255,255)"/>
            <path id="pk84cA9uK" d="M310 4099 c-47 -3 -96 -11 -110 -16 -33 -15 -86 -71 -101 -108 -7 -19 -13 -128 -17 -301 l-5 -271 83 -114 c109 -151 168 -219 188 -219 12 0 21 14 29 49 50 211 231 341 473 341 148 0 264 -42 400 -144 52 -39 98 -72 102 -74 5 -2 8 33 8 78 l0 81 173 -2 c94 -1 195 -4 222 -6 l50 -5 92 -271 c50 -150 157 -464 236 -699 l144 -428 -407 0 -408 0 -61 183 c-34 100 -61 188 -61 195 0 8 19 12 60 12 42 0 60 4 60 13 0 22 -140 419 -171 485 -52 108 -125 158 -194 132 -28 -10 -28 -11 -22 -79 7 -80 19 -119 395 -1216 138 -403 149 -431 180 -481 31 -50 68 -74 114 -74 83 0 79 50 -32 382 -33 98 -60 181 -60 186 0 4 157 8 349 8 l349 0 41 -131 c76 -242 93 -320 95 -440 1 -106 0 -113 -32 -177 -58 -118 -202 -221 -348 -249 -33 -7 -63 -15 -68 -20 -12 -10 15 -99 30 -99 15 0 54 -61 54 -84 0 -9 7 -16 15 -16 8 0 15 -9 15 -20 0 -11 7 -20 15 -20 17 0 65 -67 65 -92 0 -10 6 -18 13 -18 16 -1 107 -130 107 -152 0 -10 6 -18 14 -18 16 0 56 -59 56 -84 0 -9 6 -16 13 -16 8 0 20 -11 27 -25 13 -25 14 -25 161 -25 178 0 238 11 285 52 68 60 69 62 72 382 l3 288 -23 16 c-56 39 -118 107 -147 162 -25 47 -81 190 -81 207 0 2 56 3 125 3 l125 0 0 79 c0 56 -7 101 -25 157 -19 60 -22 80 -12 86 6 4 18 6 25 3 9 -3 12 11 12 50 l0 55 -199 0 -199 0 -20 58 c-54 149 -72 269 -52 342 29 107 154 160 376 160 l94 0 0 883 c0 596 -4 895 -11 921 -15 55 -79 121 -132 135 -45 12 -2382 22 -2547 10z"/>
            <path id="pvKRSvcYP" d="M2948 1923 c-21 -2 -38 -6 -38 -9 0 -27 38 -162 61 -213 l28 -66 3 148 c2 94 -1 146 -7 145 -5 -1 -27 -3 -47 -5z"/>
        </g>
    </g>
 
    <g id="l1sWdQGezHz6UfWDqYb0ErD" fill="rgb(255,80,55)" style="transform: none;">
        <g>
            <path id="p1Ab4mJ3VF" d="M81 1868 c-1 -1116 2 -1610 9 -1644 14 -64 54 -120 104 -147 l41 -22 1153 -3 c633 -1 1152 0 1152 3 0 15 -47 75 -58 75 -7 0 -10 4 -7 10 8 13 -44 90 -62 90 -8 0 -11 5 -8 10 8 13 -96 159 -113 159 -7 1 -10 5 -7 11 8 13 -52 100 -70 100 -9 0 -12 6 -8 16 4 10 -1 17 -16 21 -11 3 -18 9 -16 14 8 12 -45 89 -62 89 -8 0 -12 4 -9 9 4 5 -2 23 -11 40 -13 22 -23 29 -37 25 -31 -10 -307 -5 -366 6 -217 41 -410 138 -571 287 -131 122 -226 319 -399 833 -314 926 -338 1008 -347 1150 l-6 94 -51 61 c-29 33 -84 105 -124 160 -39 55 -80 111 -91 124 -19 24 -19 3 -20 -1571z"/>
        </g>
    </g>
</svg>